# xmcd CD database file
#
# Track frame offsets:
#	150
#	14550
#	28820
#	44050
#	56445
#	73087
#	87300
#	97035
#	113647
#	127465
#	145790
#	159592
#	176482
#	191730
#	206892
#
# Disc length: 2967 seconds
#
# Revision: 0
# Processed by: cddbd v1.5.1PL0 Copyright (c) Steve Scherf et al.
# Submitted via: CDex 1.51
#
DISCID=e70b950f
DTITLE=Tommy Dorsey - So Little Time
DYEAR=1994
DGENRE=Jazz
TTITLE0=I Dream of You
TTITLE1=The Minor Goes A Muggin'
TTITLE2=Milkman Keep Those Bottles Quiet
TTITLE3=I Never Knew
TTITLE4=So Little Time
TTITLE5=Song of India
TTITLE6=Losers Weepers
TTITLE7=The One I Love
TTITLE8=Our Love Affair
TTITLE9=Make Me Know It
TTITLE10=Shadows in the Sand
TTITLE11=Hawaiian War Chant
TTITLE12=Funny Little Pedro
TTITLE13=That's How it Goes
TTITLE14=Losers Weepers #2
EXTD=YEAR: 1994
EXTT0=
EXTT1=
EXTT2=
EXTT3=
EXTT4=
EXTT5=
EXTT6=
EXTT7=
EXTT8=
EXTT9=
EXTT10=
EXTT11=
EXTT12=
EXTT13=
EXTT14=
PLAYORDER=
